<svg width="30" height="30" viewBox="0 0 33 32" fill="none" xmlns="http://www.w3.org/2000/svg">
<path d="M25.9001 6.54658C24.6777 5.31182 23.2216 4.33281 21.6169 3.66665C20.0122 3.0005 18.2909 2.66053 16.5534 2.66658C9.2734 2.66658 3.34007 8.59992 3.34007 15.8799C3.34007 18.2132 3.9534 20.4799 5.10007 22.4799L3.2334 29.3333L10.2334 27.4933C12.1667 28.5466 14.3401 29.1066 16.5534 29.1066C23.8334 29.1066 29.7667 23.1733 29.7667 15.8932C29.7667 12.3599 28.3934 9.03992 25.9001 6.54658ZM16.5534 26.8666C14.5801 26.8666 12.6467 26.3333 10.9534 25.3333L10.5534 25.0933L6.3934 26.1866L7.50006 22.1333L7.2334 21.7199C6.13706 19.9692 5.55492 17.9456 5.5534 15.8799C5.5534 9.82658 10.4867 4.89325 16.5401 4.89325C19.4734 4.89325 22.2334 6.03992 24.3001 8.11992C25.3234 9.13854 26.1343 10.3501 26.6859 11.6845C27.2375 13.0188 27.5188 14.4494 27.5134 15.8932C27.5401 21.9466 22.6067 26.8666 16.5534 26.8666ZM22.5801 18.6532C22.2467 18.4932 20.6201 17.6933 20.3267 17.5732C20.0201 17.4666 19.8067 17.4132 19.5801 17.7332C19.3534 18.0666 18.7267 18.8132 18.5401 19.0266C18.3534 19.2533 18.1534 19.2799 17.8201 19.1066C17.4867 18.9466 16.4201 18.5866 15.1667 17.4666C14.1801 16.5866 13.5267 15.5066 13.3267 15.1733C13.1401 14.8399 13.3001 14.6666 13.4734 14.4932C13.6201 14.3466 13.8067 14.1066 13.9667 13.9199C14.1267 13.7332 14.1934 13.5866 14.3001 13.3732C14.4067 13.1466 14.3534 12.9599 14.2734 12.7999C14.1934 12.6399 13.5267 11.0133 13.2601 10.3466C12.9934 9.70658 12.7134 9.78658 12.5134 9.77325H11.8734C11.6467 9.77325 11.3001 9.85325 10.9934 10.1866C10.7001 10.5199 9.84673 11.3199 9.84673 12.9466C9.84673 14.5733 11.0334 16.1466 11.1934 16.3599C11.3534 16.5866 13.5267 19.9199 16.8334 21.3466C17.6201 21.6933 18.2334 21.8933 18.7134 22.0399C19.5001 22.2933 20.2201 22.2532 20.7934 22.1732C21.4334 22.0799 22.7534 21.3732 23.0201 20.5999C23.3001 19.8266 23.3001 19.1733 23.2067 19.0266C23.1134 18.8799 22.9134 18.8132 22.5801 18.6532Z" fill="white"/>
</svg>
