<svg width="159" height="38" viewBox="0 0 237 39" fill="none" xmlns="http://www.w3.org/2000/svg">
<path d="M30.7454 5.38363C30.7454 3.40151 32.3148 1.79468 34.2508 1.79468H60.8926V37.2057H34.2508C32.3148 37.2057 30.7454 35.5988 30.7454 33.6167V5.38363Z" fill="#518BE0"/>
<path d="M15.8171 3.66841C17.1764 1.1701 20.763 1.1701 22.1222 3.66841L37.4979 31.9287C38.799 34.3202 37.0679 37.2329 34.3454 37.2329H3.59401C0.871472 37.2329 -0.859692 34.3202 0.441455 31.9287L15.8171 3.66841Z" fill="#518BE0"/>
<path fill-rule="evenodd" clip-rule="evenodd" d="M19.6186 2.80864C21.6564 -0.936206 27.0335 -0.936219 29.0714 2.80864L44.4392 31.0492C46.39 34.634 43.7945 38.9999 39.7128 38.9999H8.97714C4.89541 38.9999 2.29999 34.634 4.25071 31.0492L19.6186 2.80864ZM25.9205 4.52266C25.2412 3.27438 23.4488 3.27438 22.7695 4.52266L7.40166 32.7633C6.75142 33.9582 7.61656 35.4135 8.97714 35.4135H39.7128C41.0734 35.4135 41.9385 33.9582 41.2883 32.7633L25.9205 4.52266Z" fill="#243C60"/>
<path fill-rule="evenodd" clip-rule="evenodd" d="M34.3344 5.38343C34.3344 2.41024 36.7446 0 39.7178 0H66.276C67.2671 0 68.0705 0.803414 68.0705 1.79448C68.0705 2.78554 67.2671 3.58895 66.276 3.58895H39.7178C38.7267 3.58895 37.9233 4.39237 37.9233 5.38343V33.6165C37.9233 34.6076 38.7267 35.411 39.7178 35.411H66.276C67.2671 35.411 68.0705 36.2144 68.0705 37.2055C68.0705 38.1965 67.2671 38.9999 66.276 38.9999H39.7178C36.7446 38.9999 34.3344 36.5897 34.3344 33.6165V5.38343Z" fill="#243C60"/>
<path d="M233.353 30.5485C233.353 27.2651 232.18 25.6234 229.833 25.6234C227.485 25.6234 226.312 27.2651 226.312 30.5485C226.312 33.832 227.485 35.4737 229.833 35.4737C232.18 35.4737 233.353 33.832 233.353 30.5485ZM235.072 36.333C233.787 37.7163 232.04 38.4079 229.833 38.4079C227.625 38.4079 225.878 37.7163 224.593 36.333C223.308 34.9358 222.665 33.0076 222.665 30.5485C222.665 28.0894 223.308 26.1683 224.593 24.785C225.878 23.3878 227.625 22.6892 229.833 22.6892C232.04 22.6892 233.787 23.3878 235.072 24.785C236.358 26.1683 237 28.0894 237 30.5485C237 33.0076 236.358 34.9358 235.072 36.333Z" fill="#243C60"/>
<path d="M211.87 25.854C211.548 25.854 211.269 25.7353 211.031 25.4977C210.794 25.2602 210.675 24.9808 210.675 24.6594V24.0935C210.675 23.7722 210.794 23.4927 211.031 23.2552C211.269 23.0177 211.548 22.8989 211.87 22.8989H221.217C221.539 22.8989 221.818 23.0177 222.055 23.2552C222.293 23.4927 222.412 23.7722 222.412 24.0935V24.6594C222.412 24.9808 222.293 25.2602 222.055 25.4977C221.818 25.7353 221.539 25.854 221.217 25.854H218.535C218.423 25.854 218.367 25.9099 218.367 26.0217V37.0038C218.367 37.3252 218.248 37.6046 218.011 37.8421C217.773 38.0797 217.494 38.1984 217.172 38.1984H215.915C215.593 38.1984 215.314 38.0797 215.076 37.8421C214.839 37.6046 214.72 37.3252 214.72 37.0038V26.0217C214.72 25.9099 214.664 25.854 214.552 25.854H211.87Z" fill="#243C60"/>
<path d="M198.02 38.1984C197.699 38.1984 197.42 38.0797 197.182 37.8421C196.944 37.6046 196.826 37.3252 196.826 37.0038V24.0935C196.826 23.7722 196.944 23.4927 197.182 23.2552C197.42 23.0177 197.699 22.8989 198.02 22.8989H199.047C199.844 22.8989 200.424 23.2482 200.787 23.9468L205.188 32.2673C205.188 32.2812 205.195 32.2882 205.209 32.2882C205.223 32.2882 205.23 32.2812 205.23 32.2673V24.0935C205.23 23.7722 205.349 23.4927 205.586 23.2552C205.824 23.0177 206.103 22.8989 206.425 22.8989H207.452C207.773 22.8989 208.052 23.0177 208.29 23.2552C208.527 23.4927 208.646 23.7722 208.646 24.0935V37.0038C208.646 37.3252 208.527 37.6046 208.29 37.8421C208.052 38.0797 207.773 38.1984 207.452 38.1984H206.425C205.628 38.1984 205.048 37.8491 204.685 37.1505L200.284 28.8301C200.284 28.8161 200.277 28.8091 200.263 28.8091C200.249 28.8091 200.242 28.8161 200.242 28.8301V37.0038C200.242 37.3252 200.123 37.6046 199.886 37.8421C199.648 38.0797 199.369 38.1984 199.047 38.1984H198.02Z" fill="#243C60"/>
<path d="M185.877 38.1984C185.556 38.1984 185.276 38.0797 185.039 37.8421C184.815 37.6046 184.703 37.3252 184.703 37.0038V24.0935C184.703 23.7722 184.815 23.4927 185.039 23.2552C185.276 23.0177 185.556 22.8989 185.877 22.8989H193.296C193.618 22.8989 193.89 23.0177 194.114 23.2552C194.351 23.4927 194.47 23.7722 194.47 24.0935V24.5756C194.47 24.8969 194.351 25.1764 194.114 25.4139C193.89 25.6514 193.618 25.7702 193.296 25.7702H188.434C188.322 25.7702 188.266 25.8261 188.266 25.9379V28.7044C188.266 28.8301 188.322 28.893 188.434 28.893H192.877C193.198 28.893 193.471 29.0117 193.694 29.2493C193.932 29.4868 194.051 29.7662 194.051 30.0876V30.402C194.051 30.7233 193.932 31.0028 193.694 31.2403C193.471 31.4778 193.198 31.5966 192.877 31.5966H188.434C188.322 31.5966 188.266 31.6525 188.266 31.7643V35.1595C188.266 35.2713 188.322 35.3272 188.434 35.3272H193.296C193.618 35.3272 193.89 35.4459 194.114 35.6834C194.351 35.921 194.47 36.2004 194.47 36.5218V37.0038C194.47 37.3252 194.351 37.6046 194.114 37.8421C193.89 38.0797 193.618 38.1984 193.296 38.1984H185.877Z" fill="#243C60"/>
<path d="M168.68 38.1984C168.358 38.1984 168.079 38.0797 167.841 37.8421C167.604 37.6046 167.485 37.3252 167.485 37.0038V24.0935C167.485 23.7722 167.604 23.4927 167.841 23.2552C168.079 23.0177 168.358 22.8989 168.68 22.8989H169.874C170.238 22.8989 170.566 22.9967 170.859 23.1923C171.153 23.388 171.369 23.6534 171.509 23.9888L174.757 31.89C174.757 31.904 174.764 31.911 174.778 31.911C174.792 31.911 174.799 31.904 174.799 31.89L178.048 23.9888C178.188 23.6534 178.404 23.388 178.698 23.1923C178.991 22.9967 179.319 22.8989 179.683 22.8989H180.961C181.282 22.8989 181.562 23.0177 181.799 23.2552C182.037 23.4927 182.156 23.7722 182.156 24.0935V37.0038C182.156 37.3252 182.037 37.6046 181.799 37.8421C181.562 38.0797 181.282 38.1984 180.961 38.1984H179.955C179.634 38.1984 179.354 38.0797 179.117 37.8421C178.893 37.6046 178.781 37.3252 178.781 37.0038V28.8511C178.781 28.8371 178.774 28.8301 178.761 28.8301C178.733 28.8301 178.719 28.8371 178.719 28.8511L176.707 33.6086C176.567 33.9439 176.343 34.2094 176.036 34.405C175.743 34.6006 175.414 34.6984 175.051 34.6984H174.506C174.143 34.6984 173.807 34.6006 173.5 34.405C173.207 34.2094 172.99 33.9439 172.85 33.6086L170.838 28.8511C170.838 28.8371 170.824 28.8301 170.796 28.8301C170.782 28.8301 170.775 28.8371 170.775 28.8511V37.0038C170.775 37.3252 170.657 37.6046 170.419 37.8421C170.196 38.0797 169.923 38.1984 169.602 38.1984H168.68Z" fill="#243C60"/>
<path d="M161.886 38.1984C161.564 38.1984 161.285 38.0797 161.047 37.8421C160.824 37.6046 160.712 37.3252 160.712 37.0038V24.0935C160.712 23.7722 160.824 23.4927 161.047 23.2552C161.285 23.0177 161.564 22.8989 161.886 22.8989H163.436C163.758 22.8989 164.03 23.0177 164.254 23.2552C164.491 23.4927 164.61 23.7722 164.61 24.0935V37.0038C164.61 37.3252 164.491 37.6046 164.254 37.8421C164.03 38.0797 163.758 38.1984 163.436 38.1984H161.886Z" fill="#243C60"/>
<path d="M153.911 38.4079C151.62 38.4079 149.818 37.7302 148.504 36.3749C147.191 35.0196 146.534 33.0775 146.534 30.5485C146.534 28.0615 147.17 26.1333 148.441 24.7641C149.713 23.3808 151.487 22.6892 153.765 22.6892C154.854 22.6892 155.805 22.7661 156.615 22.9197C156.95 22.9756 157.223 23.1433 157.432 23.4227C157.642 23.7022 157.747 24.0166 157.747 24.3659V25.0365C157.747 25.3299 157.628 25.5605 157.39 25.7282C157.153 25.8958 156.894 25.9447 156.615 25.8749C155.819 25.6653 155.008 25.5605 154.184 25.5605C152.926 25.5605 151.941 25.9866 151.229 26.8389C150.53 27.6912 150.181 28.9278 150.181 30.5485C150.181 32.1414 150.558 33.3779 151.313 34.2582C152.067 35.1384 153.073 35.5785 154.331 35.5785C155.169 35.5785 155.986 35.4737 156.783 35.2641C157.062 35.1943 157.321 35.2432 157.558 35.4109C157.81 35.5785 157.935 35.8091 157.935 36.1025V36.7312C157.935 37.0805 157.824 37.3949 157.6 37.6743C157.39 37.9538 157.118 38.1215 156.783 38.1773C155.958 38.331 155.001 38.4079 153.911 38.4079Z" fill="#243C60"/>
<path d="M136.733 38.1984C136.412 38.1984 136.133 38.0797 135.895 37.8421C135.671 37.6046 135.56 37.3252 135.56 37.0038V24.0935C135.56 23.7722 135.671 23.4927 135.895 23.2552C136.133 23.0177 136.412 22.8989 136.733 22.8989H144.153C144.474 22.8989 144.746 23.0177 144.97 23.2552C145.207 23.4927 145.326 23.7722 145.326 24.0935V24.5756C145.326 24.8969 145.207 25.1764 144.97 25.4139C144.746 25.6514 144.474 25.7702 144.153 25.7702H139.29C139.178 25.7702 139.123 25.8261 139.123 25.9379V28.7044C139.123 28.8301 139.178 28.893 139.29 28.893H143.733C144.055 28.893 144.327 29.0117 144.551 29.2493C144.788 29.4868 144.907 29.7662 144.907 30.0876V30.402C144.907 30.7233 144.788 31.0028 144.551 31.2403C144.327 31.4778 144.055 31.5966 143.733 31.5966H139.29C139.178 31.5966 139.123 31.6525 139.123 31.7643V35.1595C139.123 35.2713 139.178 35.3272 139.29 35.3272H144.153C144.474 35.3272 144.746 35.4459 144.97 35.6834C145.207 35.921 145.326 36.2004 145.326 36.5218V37.0038C145.326 37.3252 145.207 37.6046 144.97 37.8421C144.746 38.0797 144.474 38.1984 144.153 38.1984H136.733Z" fill="#243C60"/>
<path d="M122.381 38.1984C122.059 38.1984 121.78 38.0797 121.542 37.8421C121.305 37.6046 121.186 37.3252 121.186 37.0038V24.0935C121.186 23.7722 121.305 23.4927 121.542 23.2552C121.78 23.0177 122.059 22.8989 122.381 22.8989H123.575C123.897 22.8989 124.169 23.0177 124.393 23.2552C124.63 23.4927 124.749 23.7722 124.749 24.0935V28.7044C124.749 28.8301 124.812 28.893 124.938 28.893H129.255C129.381 28.893 129.444 28.8301 129.444 28.7044V24.0935C129.444 23.7722 129.555 23.4927 129.779 23.2552C130.017 23.0177 130.296 22.8989 130.617 22.8989H131.812C132.133 22.8989 132.413 23.0177 132.65 23.2552C132.888 23.4927 133.007 23.7722 133.007 24.0935V37.0038C133.007 37.3252 132.888 37.6046 132.65 37.8421C132.413 38.0797 132.133 38.1984 131.812 38.1984H130.617C130.296 38.1984 130.017 38.0797 129.779 37.8421C129.555 37.6046 129.444 37.3252 129.444 37.0038V31.7643C129.444 31.6525 129.381 31.5966 129.255 31.5966H124.938C124.812 31.5966 124.749 31.6525 124.749 31.7643V37.0038C124.749 37.3252 124.63 37.6046 124.393 37.8421C124.169 38.0797 123.897 38.1984 123.575 38.1984H122.381Z" fill="#243C60"/>
<path d="M108.007 38.1984C107.686 38.1984 107.406 38.0797 107.169 37.8421C106.931 37.6046 106.813 37.3252 106.813 37.0038V24.0935C106.813 23.7722 106.931 23.4927 107.169 23.2552C107.406 23.0177 107.686 22.8989 108.007 22.8989H109.034C109.831 22.8989 110.41 23.2482 110.774 23.9468L115.175 32.2673C115.175 32.2812 115.182 32.2882 115.196 32.2882C115.21 32.2882 115.217 32.2812 115.217 32.2673V24.0935C115.217 23.7722 115.336 23.4927 115.573 23.2552C115.811 23.0177 116.09 22.8989 116.411 22.8989H117.438C117.76 22.8989 118.039 23.0177 118.277 23.2552C118.514 23.4927 118.633 23.7722 118.633 24.0935V37.0038C118.633 37.3252 118.514 37.6046 118.277 37.8421C118.039 38.0797 117.76 38.1984 117.438 38.1984H116.411C115.615 38.1984 115.035 37.8491 114.672 37.1505L110.271 28.8301C110.271 28.8161 110.264 28.8091 110.25 28.8091C110.236 28.8091 110.229 28.8161 110.229 28.8301V37.0038C110.229 37.3252 110.11 37.6046 109.873 37.8421C109.635 38.0797 109.356 38.1984 109.034 38.1984H108.007Z" fill="#243C60"/>
<path d="M101.55 30.5485C101.55 27.2651 100.376 25.6234 98.029 25.6234C95.6817 25.6234 94.5081 27.2651 94.5081 30.5485C94.5081 33.832 95.6817 35.4737 98.029 35.4737C100.376 35.4737 101.55 33.832 101.55 30.5485ZM103.269 36.333C101.983 37.7163 100.237 38.4079 98.029 38.4079C95.8214 38.4079 94.0749 37.7163 92.7895 36.333C91.504 34.9358 90.8613 33.0076 90.8613 30.5485C90.8613 28.0894 91.504 26.1683 92.7895 24.785C94.0749 23.3878 95.8214 22.6892 98.029 22.6892C100.237 22.6892 101.983 23.3878 103.269 24.785C104.554 26.1683 105.197 28.0894 105.197 30.5485C105.197 33.0076 104.554 34.9358 103.269 36.333Z" fill="#243C60"/>
<path d="M85.5228 38.4079C83.2314 38.4079 81.429 37.7302 80.1156 36.3749C78.8022 35.0196 78.1455 33.0775 78.1455 30.5485C78.1455 28.0615 78.7812 26.1333 80.0527 24.7641C81.3242 23.3808 83.0986 22.6892 85.3761 22.6892C86.4659 22.6892 87.416 22.7661 88.2264 22.9197C88.5617 22.9756 88.8342 23.1433 89.0438 23.4227C89.2534 23.7022 89.3582 24.0166 89.3582 24.3659V25.0365C89.3582 25.3299 89.2394 25.5605 89.0019 25.7282C88.7643 25.8958 88.5059 25.9447 88.2264 25.8749C87.43 25.6653 86.6196 25.5605 85.7953 25.5605C84.5378 25.5605 83.5527 25.9866 82.8402 26.8389C82.1415 27.6912 81.7922 28.9278 81.7922 30.5485C81.7922 32.1414 82.1695 33.3779 82.924 34.2582C83.6785 35.1384 84.6845 35.5785 85.942 35.5785C86.7803 35.5785 87.5977 35.4737 88.3941 35.2641C88.6735 35.1943 88.932 35.2432 89.1695 35.4109C89.421 35.5785 89.5468 35.8091 89.5468 36.1025V36.7312C89.5468 37.0805 89.435 37.3949 89.2115 37.6743C89.0019 37.9538 88.7294 38.1215 88.3941 38.1773C87.5697 38.331 86.6126 38.4079 85.5228 38.4079Z" fill="#243C60"/>
<path d="M176.25 3.90333L174.72 9.91834C174.706 9.96026 174.713 10.0022 174.741 10.0441C174.783 10.072 174.825 10.086 174.866 10.086H177.675C177.717 10.086 177.752 10.072 177.78 10.0441C177.822 10.0022 177.836 9.96026 177.822 9.91834L176.292 3.90333C176.292 3.88936 176.285 3.88237 176.271 3.88237C176.257 3.88237 176.25 3.88936 176.25 3.90333ZM170.654 16.101C170.36 16.101 170.123 15.9823 169.941 15.7447C169.774 15.5072 169.739 15.2487 169.837 14.9693L174.07 1.93326C174.182 1.59793 174.377 1.32547 174.657 1.11589C174.95 0.906305 175.272 0.801514 175.621 0.801514H177.004C177.368 0.801514 177.696 0.906305 177.989 1.11589C178.283 1.32547 178.478 1.59793 178.576 1.93326L182.789 14.9693C182.887 15.2487 182.845 15.5072 182.663 15.7447C182.495 15.9823 182.265 16.101 181.971 16.101H180.567C180.218 16.101 179.903 15.9962 179.624 15.7866C179.345 15.5631 179.163 15.2837 179.079 14.9483L178.576 12.9573C178.562 12.8455 178.492 12.7896 178.367 12.7896H174.175C174.063 12.7896 173.993 12.8455 173.965 12.9573L173.462 14.9483C173.378 15.2837 173.197 15.5631 172.917 15.7866C172.638 15.9962 172.324 16.101 171.974 16.101H170.654Z" fill="#243C60"/>
<path d="M161.053 3.61003V7.63401C161.053 7.75976 161.109 7.82263 161.22 7.82263H162.226C163.204 7.82263 163.952 7.62004 164.469 7.21484C164.986 6.79568 165.244 6.21583 165.244 5.47531C165.244 4.02221 164.287 3.29565 162.373 3.29565C161.94 3.29565 161.563 3.3236 161.241 3.37948C161.116 3.40743 161.053 3.48428 161.053 3.61003ZM158.747 16.1011C158.426 16.1011 158.147 15.9824 157.909 15.7448C157.671 15.5073 157.553 15.2279 157.553 14.9065V2.10103C157.553 1.75173 157.665 1.45133 157.888 1.19983C158.126 0.94833 158.412 0.808609 158.747 0.780665C159.991 0.654916 161.269 0.592041 162.583 0.592041C164.679 0.592041 166.236 0.990247 167.256 1.78666C168.29 2.5691 168.807 3.68687 168.807 5.13998C168.807 6.07611 168.535 6.92143 167.99 7.67592C167.445 8.41645 166.732 8.94739 165.852 9.26875C165.838 9.26875 165.831 9.27574 165.831 9.28971C165.831 9.31765 165.845 9.33162 165.873 9.33162C166.558 9.72285 167.138 10.5472 167.613 11.8047L168.807 14.9903C168.905 15.2558 168.87 15.5073 168.703 15.7448C168.535 15.9824 168.311 16.1011 168.032 16.1011H166.753C166.39 16.1011 166.062 15.9963 165.768 15.7868C165.475 15.5772 165.272 15.3047 165.161 14.9694L164.113 11.9514C163.917 11.3646 163.68 10.9664 163.4 10.7568C163.121 10.5472 162.687 10.4424 162.101 10.4424H161.22C161.109 10.4424 161.053 10.5053 161.053 10.631V14.9065C161.053 15.2279 160.934 15.5073 160.696 15.7448C160.459 15.9824 160.179 16.1011 159.858 16.1011H158.747Z" fill="#243C60"/>
<path d="M152.29 8.45138C152.29 5.16792 151.117 3.52619 148.769 3.52619C146.422 3.52619 145.248 5.16792 145.248 8.45138C145.248 11.7348 146.422 13.3766 148.769 13.3766C151.117 13.3766 152.29 11.7348 152.29 8.45138ZM154.009 14.2359C152.724 15.6191 150.977 16.3107 148.769 16.3107C146.562 16.3107 144.815 15.6191 143.53 14.2359C142.244 12.8386 141.602 10.9105 141.602 8.45138C141.602 5.99228 142.244 4.07111 143.53 2.68786C144.815 1.29065 146.562 0.592041 148.769 0.592041C150.977 0.592041 152.724 1.29065 154.009 2.68786C155.294 4.07111 155.937 5.99228 155.937 8.45138C155.937 10.9105 155.294 12.8386 154.009 14.2359Z" fill="#243C60"/>
<path d="M126.521 16.101C126.199 16.101 125.92 15.9823 125.682 15.7447C125.445 15.5072 125.326 15.2278 125.326 14.9064V1.99613C125.326 1.67477 125.445 1.39533 125.682 1.1578C125.92 0.920277 126.199 0.801514 126.521 0.801514H127.715C128.079 0.801514 128.407 0.899319 128.7 1.09493C128.994 1.29054 129.21 1.55601 129.35 1.89134L132.599 9.79259C132.599 9.80657 132.606 9.81355 132.62 9.81355C132.634 9.81355 132.641 9.80657 132.641 9.79259L135.889 1.89134C136.029 1.55601 136.245 1.29054 136.539 1.09493C136.832 0.899319 137.161 0.801514 137.524 0.801514H138.802C139.124 0.801514 139.403 0.920277 139.641 1.1578C139.878 1.39533 139.997 1.67477 139.997 1.99613V14.9064C139.997 15.2278 139.878 15.5072 139.641 15.7447C139.403 15.9823 139.124 16.101 138.802 16.101H137.796C137.475 16.101 137.196 15.9823 136.958 15.7447C136.734 15.5072 136.623 15.2278 136.623 14.9064V6.75365C136.623 6.73968 136.616 6.73269 136.602 6.73269C136.574 6.73269 136.56 6.73968 136.56 6.75365L134.548 11.5112C134.408 11.8465 134.185 12.112 133.877 12.3076C133.584 12.5032 133.255 12.601 132.892 12.601H132.347C131.984 12.601 131.649 12.5032 131.341 12.3076C131.048 12.112 130.831 11.8465 130.691 11.5112L128.679 6.75365C128.679 6.73968 128.666 6.73269 128.638 6.73269C128.624 6.73269 128.617 6.73968 128.617 6.75365V14.9064C128.617 15.2278 128.498 15.5072 128.26 15.7447C128.037 15.9823 127.764 16.101 127.443 16.101H126.521Z" fill="#243C60"/>
<path d="M119.727 16.101C119.405 16.101 119.126 15.9823 118.888 15.7447C118.665 15.5072 118.553 15.2278 118.553 14.9064V1.99613C118.553 1.67477 118.665 1.39533 118.888 1.1578C119.126 0.920277 119.405 0.801514 119.727 0.801514H121.278C121.599 0.801514 121.871 0.920277 122.095 1.1578C122.333 1.39533 122.451 1.67477 122.451 1.99613V14.9064C122.451 15.2278 122.333 15.5072 122.095 15.7447C121.871 15.9823 121.599 16.101 121.278 16.101H119.727Z" fill="#243C60"/>
<path d="M108.696 3.61003V7.63401C108.696 7.75976 108.752 7.82263 108.863 7.82263H109.869C110.847 7.82263 111.595 7.62004 112.112 7.21484C112.629 6.79568 112.887 6.21583 112.887 5.47531C112.887 4.02221 111.93 3.29565 110.016 3.29565C109.583 3.29565 109.206 3.3236 108.884 3.37948C108.759 3.40743 108.696 3.48428 108.696 3.61003ZM106.39 16.1011C106.069 16.1011 105.789 15.9824 105.552 15.7448C105.314 15.5073 105.196 15.2279 105.196 14.9065V2.10103C105.196 1.75173 105.307 1.45133 105.531 1.19983C105.769 0.94833 106.055 0.808609 106.39 0.780665C107.634 0.654916 108.912 0.592041 110.226 0.592041C112.321 0.592041 113.879 0.990247 114.899 1.78666C115.933 2.5691 116.45 3.68687 116.45 5.13998C116.45 6.07611 116.178 6.92143 115.633 7.67592C115.088 8.41645 114.375 8.94739 113.495 9.26875C113.481 9.26875 113.474 9.27574 113.474 9.28971C113.474 9.31765 113.488 9.33162 113.516 9.33162C114.201 9.72285 114.781 10.5472 115.256 11.8047L116.45 14.9903C116.548 15.2558 116.513 15.5073 116.345 15.7448C116.178 15.9824 115.954 16.1011 115.675 16.1011H114.396C114.033 16.1011 113.705 15.9963 113.411 15.7868C113.118 15.5772 112.915 15.3047 112.804 14.9694L111.756 11.9514C111.56 11.3646 111.322 10.9664 111.043 10.7568C110.764 10.5472 110.33 10.4424 109.744 10.4424H108.863C108.752 10.4424 108.696 10.5053 108.696 10.631V14.9065C108.696 15.2279 108.577 15.5073 108.339 15.7448C108.102 15.9824 107.822 16.1011 107.501 16.1011H106.39Z" fill="#243C60"/>
<path d="M95.8775 3.61003V8.17892C95.8775 8.27673 95.9403 8.3396 96.0661 8.36755C96.5411 8.42343 96.9184 8.45138 97.1978 8.45138C98.2038 8.45138 98.9793 8.22084 99.5242 7.75976C100.083 7.2847 100.363 6.62801 100.363 5.78968C100.363 4.127 99.3076 3.29565 97.1978 3.29565C96.8485 3.29565 96.4643 3.33058 96.0451 3.40044C95.9334 3.42839 95.8775 3.49825 95.8775 3.61003ZM93.5721 16.1011C93.2507 16.1011 92.9713 15.9824 92.7337 15.7448C92.4962 15.5073 92.3774 15.2279 92.3774 14.9065V2.10103C92.3774 1.7657 92.4892 1.4653 92.7128 1.19983C92.9363 0.934359 93.2158 0.787651 93.5511 0.759706C94.7387 0.647929 95.8845 0.592041 96.9883 0.592041C101.459 0.592041 103.695 2.25473 103.695 5.5801C103.695 7.38251 103.171 8.75178 102.123 9.68791C101.089 10.6101 99.5661 11.0712 97.5541 11.0712C97.0232 11.0712 96.5272 11.0502 96.0661 11.0083C95.9403 11.0083 95.8775 11.0642 95.8775 11.1759V14.9065C95.8775 15.2279 95.7587 15.5073 95.5212 15.7448C95.2837 15.9824 95.0042 16.1011 94.6828 16.1011H93.5721Z" fill="#243C60"/>
<path d="M84.5378 3.90333L83.0079 9.91834C82.9939 9.96026 83.0009 10.0022 83.0288 10.0441C83.0707 10.072 83.1127 10.086 83.1546 10.086H85.963C86.0049 10.086 86.0398 10.072 86.0678 10.0441C86.1097 10.0022 86.1237 9.96026 86.1097 9.91834L84.5797 3.90333C84.5797 3.88936 84.5728 3.88237 84.5588 3.88237C84.5448 3.88237 84.5378 3.88936 84.5378 3.90333ZM78.942 16.101C78.6486 16.101 78.411 15.9823 78.2294 15.7447C78.0617 15.5072 78.0268 15.2487 78.1246 14.9693L82.3582 1.93326C82.4699 1.59793 82.6656 1.32547 82.945 1.11589C83.2384 0.906305 83.5598 0.801514 83.9091 0.801514H85.2923C85.6556 0.801514 85.9839 0.906305 86.2774 1.11589C86.5708 1.32547 86.7664 1.59793 86.8642 1.93326L91.0768 14.9693C91.1746 15.2487 91.1327 15.5072 90.951 15.7447C90.7834 15.9823 90.5528 16.101 90.2594 16.101H88.8552C88.5059 16.101 88.1915 15.9962 87.9121 15.7866C87.6327 15.5631 87.451 15.2837 87.3672 14.9483L86.8642 12.9573C86.8502 12.8455 86.7804 12.7896 86.6546 12.7896H82.463C82.3512 12.7896 82.2813 12.8455 82.2534 12.9573L81.7504 14.9483C81.6665 15.2837 81.4849 15.5631 81.2055 15.7866C80.926 15.9962 80.6116 16.101 80.2623 16.101H78.942Z" fill="#243C60"/>
</svg>
