<svg width="60" height="35" viewBox="0 0 60 35" fill="none" xmlns="http://www.w3.org/2000/svg">
<path d="M27.1001 5.16149C27.1001 3.41437 28.4835 1.99805 30.19 1.99805H53.673V33.2107H30.19C28.4835 33.2107 27.1001 31.7944 27.1001 30.0472V5.16149Z" fill="#518BE0"/>
<path d="M13.9418 3.64963C15.1399 1.44752 18.3013 1.44752 19.4994 3.64963L33.0521 28.5594C34.199 30.6673 32.6731 33.2347 30.2733 33.2347H3.1679C0.768149 33.2347 -0.757766 30.6673 0.389116 28.5594L13.9418 3.64963Z" fill="#518BE0"/>
<path fill-rule="evenodd" clip-rule="evenodd" d="M17.2928 2.89215C19.089 -0.408705 23.8286 -0.408717 25.6249 2.89215L39.1707 27.7845C40.8901 30.9442 38.6024 34.7926 35.0046 34.7926H7.91301C4.31521 34.7926 2.0275 30.9443 3.74695 27.7845L17.2928 2.89215ZM22.8475 4.40295C22.2488 3.30267 20.6689 3.30267 20.0701 4.40296L6.52432 29.2953C5.95117 30.3486 6.71374 31.6313 7.91301 31.6313H35.0046C36.2039 31.6313 36.9665 30.3486 36.3933 29.2953L22.8475 4.40295Z" fill="#243C60"/>
<path fill-rule="evenodd" clip-rule="evenodd" d="M30.2637 5.16167C30.2637 2.54099 32.3882 0.416504 35.0088 0.416504H58.4183C59.2919 0.416504 60 1.12466 60 1.99823C60 2.87179 59.2919 3.57995 58.4183 3.57995H35.0088C34.1353 3.57995 33.4271 4.28811 33.4271 5.16167V30.0474C33.4271 30.921 34.1353 31.6291 35.0088 31.6291H58.4183C59.2919 31.6291 60 32.3373 60 33.2109C60 34.0844 59.2919 34.7926 58.4183 34.7926H35.0088C32.3882 34.7926 30.2637 32.6681 30.2637 30.0474V5.16167Z" fill="#243C60"/>
</svg>
