<svg width="33" height="33" viewBox="0 0 33 33" fill="none" xmlns="http://www.w3.org/2000/svg">
<path d="M27.8367 5.15608C26.3624 3.67437 24.6064 2.49956 22.6711 1.70017C20.7357 0.900789 18.6598 0.492832 16.5643 0.500095C7.78442 0.500095 0.628643 7.62007 0.628643 16.356C0.628643 19.156 1.36834 21.876 2.75126 24.276L0.5 32.5L8.94221 30.292C11.2739 31.556 13.895 32.228 16.5643 32.228C25.3442 32.228 32.5 25.108 32.5 16.372C32.5 12.1321 30.8437 8.14807 27.8367 5.15608ZM16.5643 29.54C14.1844 29.54 11.8528 28.9 9.81055 27.7L9.32814 27.412L4.31106 28.724L5.64573 23.86L5.32412 23.364C4.0019 21.2632 3.29982 18.8348 3.29799 16.356C3.29799 9.09207 9.24774 3.17209 16.5482 3.17209C20.0859 3.17209 23.4146 4.54808 25.907 7.04408C27.1412 8.26641 28.1192 9.72033 28.7845 11.3215C29.4497 12.9228 29.7889 14.6394 29.7824 16.372C29.8146 23.636 23.8648 29.54 16.5643 29.54ZM23.8327 19.684C23.4307 19.492 21.4688 18.532 21.1151 18.388C20.7452 18.26 20.4879 18.196 20.2146 18.58C19.9412 18.98 19.1854 19.876 18.9603 20.132C18.7352 20.404 18.494 20.436 18.092 20.228C17.6899 20.036 16.4035 19.604 14.892 18.26C13.702 17.204 12.9141 15.908 12.6729 15.508C12.4477 15.1081 12.6407 14.9001 12.8497 14.6921C13.0266 14.5161 13.2518 14.2281 13.4447 14.0041C13.6377 13.7801 13.7181 13.6041 13.8467 13.3481C13.9754 13.0761 13.9111 12.8521 13.8146 12.6601C13.7181 12.4681 12.9141 10.5161 12.5925 9.71607C12.2709 8.94807 11.9332 9.04407 11.692 9.02807H10.9201C10.6467 9.02807 10.2286 9.12407 9.85879 9.52407C9.50502 9.92407 8.47588 10.8841 8.47588 12.8361C8.47588 14.7881 9.90703 16.676 10.1 16.932C10.293 17.204 12.9141 21.204 16.902 22.916C17.8508 23.332 18.5905 23.572 19.1693 23.748C20.1181 24.052 20.9864 24.004 21.6779 23.908C22.4497 23.796 24.0417 22.948 24.3633 22.02C24.701 21.092 24.701 20.308 24.5884 20.132C24.4759 19.956 24.2347 19.876 23.8327 19.684Z" fill="white"/>
</svg>
