<svg width="64" height="64" viewBox="0 0 64 64" fill="none" xmlns="http://www.w3.org/2000/svg">
<path d="M0.2675 31.6071C0.26575 37.1778 1.7325 42.6161 4.521 47.4096L0 63.7884L16.8927 59.3935C21.5472 61.9116 26.7878 63.2392 32.1203 63.2412H32.134C49.696 63.2412 63.9925 49.06 64 31.6324C64.003 23.1864 60.691 15.2442 54.675 9.26958C48.6582 3.29575 40.6582 0.00347287 32.134 0C14.569 0 0.2745 14.1792 0.2675 31.6071ZM10.3278 46.5841L9.697 45.5906C7.0455 41.4073 5.646 36.573 5.648 31.6091C5.6535 17.1235 17.5345 5.33829 32.144 5.33829C39.219 5.34127 45.868 8.07789 50.869 13.0431C55.8698 18.0088 58.6215 24.6097 58.6198 31.6304C58.6133 46.116 46.732 57.9026 32.134 57.9026H32.1235C27.3703 57.9002 22.7085 56.6335 18.643 54.24L17.6755 53.6707L7.651 56.2786L10.3278 46.5841Z" fill="url(#paint0_linear_407_123)"/>
<defs>
<linearGradient id="paint0_linear_407_123" x1="3200" y1="6378.84" x2="3200" y2="0" gradientUnits="userSpaceOnUse">
<stop stop-color="#F9F9F9"/>
<stop offset="1" stop-color="white"/>
</linearGradient>
</defs>
</svg>
