<svg width="180" height="180" viewBox="0 0 180 180" fill="none" xmlns="http://www.w3.org/2000/svg">
<path fill-rule="evenodd" clip-rule="evenodd" d="M154.926 47.5736C143.674 36.3214 128.413 30 112.5 30C96.587 30 81.3258 36.3214 70.0736 47.5736C58.8214 58.8258 52.5 74.087 52.5 90C52.5 105.913 58.8214 121.174 70.0736 132.426C81.3258 143.679 96.587 150 112.5 150C128.413 150 143.674 143.679 154.926 132.426C166.179 121.174 172.5 105.913 172.5 90C172.5 74.087 166.179 58.8258 154.926 47.5736ZM133.725 105.825L116.25 88.35V60H105V93L125.775 113.775L133.725 105.825ZM9.6967 132.803C11.1032 134.21 13.0109 135 15 135H52.5C49.05 130.35 46.05 125.325 43.725 120H15C13.0109 120 11.1032 120.79 9.6967 122.197C8.29018 123.603 7.5 125.511 7.5 127.5C7.5 129.489 8.29018 131.397 9.6967 132.803ZM17.1967 95.3033C18.6032 96.7098 20.5109 97.5 22.5 97.5H37.875L37.5 90L37.875 82.5H22.5C20.5109 82.5 18.6032 83.2902 17.1967 84.6967C15.7902 86.1032 15 88.0109 15 90C15 91.9891 15.7902 93.8968 17.1967 95.3033ZM24.6967 57.8033C26.1032 59.2098 28.0109 60 30 60H43.725C46.05 54.675 49.05 49.65 52.5 45H30C28.0109 45 26.1032 45.7902 24.6967 47.1967C23.2902 48.6032 22.5 50.5109 22.5 52.5C22.5 54.4891 23.2902 56.3968 24.6967 57.8033ZM112.5 138C138.734 138 160 116.734 160 90.5C160 64.2665 138.734 43 112.5 43C86.2665 43 65 64.2665 65 90.5C65 116.734 86.2665 138 112.5 138Z" fill="#F47A1E"/>
</svg>
