<svg width="180" height="180" viewBox="0 0 180 180" fill="none" xmlns="http://www.w3.org/2000/svg">
<rect width="180" height="180" fill="#1E1E1E"/>
<path d="M-454 -3158C-454 -3159.1 -453.105 -3160 -452 -3160H2895C2896.1 -3160 2897 -3159.1 2897 -3158V5606C2897 5607.1 2896.1 5608 2895 5608H-452C-453.105 5608 -454 5607.1 -454 5606V-3158Z" fill="#404040"/>
<path d="M-452 -3159H2895V-3161H-452V-3159ZM2896 -3158V5606H2898V-3158H2896ZM2895 5607H-452V5609H2895V5607ZM-453 5606V-3158H-455V5606H-453ZM-452 5607C-452.552 5607 -453 5606.55 -453 5606H-455C-455 5607.66 -453.657 5609 -452 5609V5607ZM2896 5606C2896 5606.55 2895.55 5607 2895 5607V5609C2896.66 5609 2898 5607.66 2898 5606H2896ZM2895 -3159C2895.55 -3159 2896 -3158.55 2896 -3158H2898C2898 -3159.66 2896.66 -3161 2895 -3161V-3159ZM-452 -3161C-453.657 -3161 -455 -3159.66 -455 -3158H-453C-453 -3158.55 -452.552 -3159 -452 -3159V-3161Z" fill="white" fill-opacity="0.1"/>
<rect width="1280" height="7619" transform="translate(-187 -2759)" fill="#F0F0F0"/>
<g clip-path="url(#clip0_248_19)">
<rect x="-187" y="-255" width="1280" height="1263" rx="56" fill="#F0F0F0"/>
<rect x="-187" y="-255" width="1280" height="1317" fill="#0D1522"/>
<rect x="-48" y="-48" width="1003" height="276" rx="16" fill="white"/>
<path d="M163.373 115.68C161.406 114.168 159.115 113.129 156.681 112.645C154.246 112.161 151.732 112.244 149.334 112.887L121.68 119.238C122.323 116.524 122.343 113.699 121.738 110.975C121.133 108.252 119.918 105.7 118.186 103.512C116.453 101.324 114.247 99.5564 111.733 98.3411C109.219 97.1258 106.462 96.4946 103.669 96.4949H70.5809C67.8022 96.488 65.0497 97.0311 62.4823 98.0928C59.915 99.1546 57.5838 100.714 55.6233 102.681L40.6724 117.621H21.7094C18.9046 117.621 16.2148 118.734 14.2315 120.715C12.2482 122.696 11.134 125.383 11.134 128.184L11.134 154.592C11.134 157.393 12.2482 160.08 14.2315 162.061C16.2148 164.042 18.9046 165.155 21.7094 165.155H90.4494C90.8817 165.155 91.3124 165.102 91.7317 164.996L134.033 154.433C134.303 154.369 134.566 154.281 134.82 154.169L160.511 143.25L160.802 143.118C163.271 141.885 165.386 140.045 166.946 137.771C168.507 135.497 169.462 132.863 169.722 130.119C169.981 127.374 169.537 124.608 168.431 122.082C167.325 119.556 165.594 117.353 163.4 115.68H163.373ZM21.7094 128.184H37.5725V154.592H21.7094V128.184ZM156.169 133.604L131.052 144.286L89.7884 154.592H48.1479V125.088L63.1054 110.154C64.0839 109.169 65.2486 108.388 66.532 107.857C67.8153 107.325 69.1916 107.054 70.5809 107.058H103.669C105.772 107.058 107.79 107.893 109.277 109.378C110.765 110.864 111.6 112.879 111.6 114.98C111.6 117.081 110.765 119.096 109.277 120.582C107.79 122.068 105.772 122.903 103.669 122.903H85.1617C83.7593 122.903 82.4144 123.459 81.4227 124.449C80.4311 125.44 79.874 126.783 79.874 128.184C79.874 129.585 80.4311 130.928 81.4227 131.919C82.4144 132.909 83.7593 133.466 85.1617 133.466H106.312C106.71 133.464 107.107 133.42 107.496 133.334L151.78 123.16L151.985 123.107C153.337 122.732 154.78 122.87 156.036 123.494C157.292 124.118 158.273 125.184 158.79 126.486C159.307 127.789 159.323 129.237 158.835 130.551C158.348 131.865 157.391 132.952 156.149 133.604H156.169Z" fill="#F47A1E"/>
<path d="M118.454 84.6649C118.454 74.9516 105.852 67.0747 90.3092 67.0747C74.7665 67.0747 62.1649 74.9516 62.1649 84.6649M90.3092 50.0258C85.644 50.0258 81.1699 48.1725 77.8711 44.8737C74.5723 41.5749 72.719 37.1008 72.719 32.4355C72.719 27.7703 74.5723 23.2962 77.8711 19.9974C81.1699 16.6986 85.644 14.8453 90.3092 14.8453C94.9745 14.8453 99.4486 16.6986 102.747 19.9974C106.046 23.2962 107.899 27.7703 107.899 32.4355C107.899 37.1008 106.046 41.5749 102.747 44.8737C99.4486 48.1725 94.9745 50.0258 90.3092 50.0258Z" stroke="#F47A1E" stroke-width="12" stroke-linecap="round" stroke-linejoin="round"/>
</g>
<defs>
<clipPath id="clip0_248_19">
<rect x="-187" y="-255" width="1280" height="1263" rx="56" fill="white"/>
</clipPath>
</defs>
</svg>
