<svg width="180" height="180" viewBox="0 0 180 180" fill="none" xmlns="http://www.w3.org/2000/svg">
<path fill-rule="evenodd" clip-rule="evenodd" d="M84.5767 50.1404L93.0841 41.6324C99.9325 34.7729 111.96 30.019 123.902 28.3068C129.197 27.4819 134.581 27.4103 139.896 28.0941C144.607 28.796 147.489 30.1786 148.829 31.5292C150.179 32.8692 151.562 35.7513 152.264 40.4626C152.944 45.0037 152.891 50.5658 152.051 56.4575C150.35 68.4006 145.585 80.4287 138.726 87.2776L91.4464 134.571L79.2596 122.384C78.7659 121.889 78.1797 121.497 77.5344 121.229C76.8891 120.961 76.1974 120.823 75.4988 120.823C74.8002 120.822 74.1082 120.959 73.4626 121.226C72.8169 121.493 72.2302 121.885 71.7358 122.378C70.7374 123.375 70.1759 124.728 70.1749 126.139C70.1745 126.838 70.3116 127.53 70.5785 128.176C70.8454 128.821 71.2368 129.408 71.7305 129.903L87.6819 145.855C88.1758 146.35 88.7626 146.743 89.4085 147.011C90.0545 147.279 90.747 147.417 91.4464 147.417C92.1458 147.417 92.8383 147.279 93.4843 147.011C94.1303 146.743 94.717 146.35 95.2109 145.855L101.028 140.027L113.47 160.776C113.885 161.471 114.453 162.061 115.131 162.503C115.808 162.945 116.578 163.227 117.381 163.326C118.184 163.426 118.999 163.341 119.765 163.078C120.53 162.814 121.225 162.38 121.797 161.807L143.065 140.538C143.649 139.953 144.089 139.239 144.349 138.455C144.609 137.67 144.683 136.836 144.564 136.018L139.62 101.433L146.255 94.8072C155.348 85.7037 160.697 71.1444 162.579 57.9571C163.536 51.289 163.642 44.6634 162.781 38.878C161.93 33.2627 160.059 27.7112 156.358 23.9996C152.647 20.2987 147.095 18.4163 141.47 17.5761C135.136 16.7423 128.716 16.8139 122.403 17.7888C109.206 19.6499 94.6367 24.9993 85.555 34.0922L78.9299 40.7284L44.3473 35.7832C43.5293 35.6646 42.6948 35.7384 41.9103 35.9987C41.1257 36.259 40.4127 36.6986 39.8277 37.2827L18.5592 58.5526C17.9868 59.1245 17.5524 59.8196 17.2892 60.5848C17.026 61.35 16.9409 62.1652 17.0403 62.9683C17.1398 63.7714 17.4213 64.5412 17.8632 65.219C18.3052 65.8968 18.8961 66.4649 19.5908 66.8798L40.3276 79.3227L34.5106 85.14C34.0155 85.634 33.6226 86.2208 33.3545 86.8668C33.0865 87.5128 32.9485 88.2054 32.9485 88.9048C32.9485 89.6042 33.0865 90.2968 33.3545 90.9428C33.6226 91.5888 34.0155 92.1756 34.5106 92.6696L50.462 108.622C50.9564 109.116 51.5433 109.509 52.1892 109.776C52.8351 110.044 53.5274 110.181 54.2265 110.181C54.9257 110.181 55.618 110.044 56.2639 109.776C56.9098 109.509 57.4967 109.116 57.9911 108.622C58.4854 108.128 58.8776 107.541 59.1451 106.895C59.4127 106.249 59.5504 105.556 59.5504 104.857C59.5504 104.158 59.4127 103.466 59.1451 102.82C58.8776 102.174 58.4854 101.587 57.9911 101.092L45.7936 88.9154L52.6739 82.0452L84.5767 50.1404ZM119.085 149.471L108.77 132.274L130.219 110.834L133.664 134.89L119.085 149.471ZM48.0906 71.5804L69.5292 50.1404L45.4745 46.6946L30.9056 61.2645L48.0906 71.5804ZM36.7119 119.268C37.2063 118.774 37.5986 118.188 37.8664 117.542C38.1342 116.897 38.2723 116.205 38.2728 115.507C38.2733 114.808 38.1362 114.116 37.8693 113.47C37.6024 112.825 37.2109 112.238 36.7172 111.743C36.2236 111.249 35.6374 110.857 34.9921 110.589C34.3468 110.321 33.6551 110.183 32.9565 110.182C32.2578 110.182 31.5659 110.319 30.9203 110.586C30.2746 110.853 29.6879 111.244 29.1935 111.738L18.5592 122.373C17.5622 123.371 17.0027 124.725 17.0037 126.136C17.0047 127.547 17.5661 128.9 18.5646 129.897C19.563 130.894 20.9166 131.454 22.3275 131.453C23.7385 131.452 25.0913 130.89 26.0883 129.892L36.7119 119.268ZM52.6633 135.22C53.1711 134.73 53.5762 134.143 53.8549 133.494C54.1335 132.845 54.2802 132.147 54.2863 131.441C54.2925 130.735 54.158 130.035 53.8906 129.382C53.6233 128.728 53.2284 128.134 52.7292 127.635C52.23 127.136 51.6363 126.741 50.9828 126.474C50.3294 126.206 49.6292 126.072 48.9232 126.078C48.2172 126.084 47.5195 126.231 46.8708 126.509C46.2221 126.788 45.6354 127.193 45.1449 127.701L23.8764 148.971C22.8794 149.97 22.3198 151.323 22.3208 152.734C22.3218 154.145 22.8833 155.498 23.8817 156.495C24.8801 157.492 26.2337 158.052 27.6447 158.051C29.0556 158.05 30.4084 157.488 31.4054 156.49L52.6633 135.22ZM68.6147 151.172C69.109 150.679 69.5013 150.093 69.7691 149.447C70.037 148.802 70.1751 148.11 70.1755 147.411C70.176 146.713 70.0389 146.021 69.772 145.375C69.5051 144.729 69.1137 144.143 68.62 143.648C68.1263 143.154 67.5401 142.762 66.8948 142.494C66.2496 142.226 65.5579 142.088 64.8592 142.087C64.1606 142.087 63.4687 142.224 62.823 142.491C62.1774 142.758 61.5906 143.149 61.0963 143.643L50.462 154.278C49.465 155.276 48.9054 156.63 48.9064 158.041C48.9074 159.452 49.4689 160.805 50.4673 161.802C51.4657 162.799 52.8193 163.359 54.2303 163.358C55.6413 163.357 56.994 162.795 57.9911 161.797L68.6147 151.172ZM112.715 80.9286C114.459 80.9286 116.186 80.585 117.798 79.9175C119.409 79.2499 120.873 78.2715 122.107 77.0381C123.34 75.8046 124.319 74.3403 124.986 72.7287C125.654 71.1171 125.997 69.3899 125.997 67.6455C125.997 65.9011 125.654 64.1739 124.986 62.5623C124.319 60.9507 123.34 59.4864 122.107 58.253C120.873 57.0195 119.409 56.0411 117.798 55.3736C116.186 54.706 114.459 54.3624 112.715 54.3624C109.192 54.3624 105.814 55.7619 103.323 58.253C100.832 60.744 99.4327 64.1226 99.4327 67.6455C99.4327 71.1684 100.832 74.547 103.323 77.0381C105.814 79.5291 109.192 80.9286 112.715 80.9286Z" fill="#F47A1E"/>
</svg>
