<svg width="113" height="113" viewBox="0 0 99 113" fill="none" xmlns="http://www.w3.org/2000/svg">
<path d="M44.2124 8.02161C41.0766 8.02783 38.3433 10.7735 38.3537 13.901L38.3683 21.3203L38.3683 30.4767L28.8508 39.9942C28.4247 40.4197 28.1401 40.9662 28.0357 41.5592C27.9314 42.1523 28.0123 42.7631 28.2676 43.3085L42.7949 74.4385C43.2764 75.472 44.3141 76.132 45.4534 76.1341L53.7548 76.1341C54.3135 76.1348 54.8608 75.9755 55.3319 75.675C55.8031 75.3745 56.1783 74.9455 56.4133 74.4385L70.9406 43.3085C71.1959 42.7631 71.2768 42.1523 71.1725 41.5592C71.0681 40.9662 70.7835 40.4197 70.3574 39.9942L60.84 30.4767L60.84 21.3162V21.312L60.8296 13.8637C60.8296 12.2947 60.2174 10.8192 59.1071 9.713C57.9968 8.6027 56.5191 7.99255 54.9502 7.9967L44.2124 8.02161ZM54.9709 31.6929C54.9702 32.0784 55.0458 32.4602 55.1932 32.8163C55.3407 33.1725 55.5571 33.496 55.8301 33.7682L64.754 42.6921L52.5386 68.8662L52.5386 49.4785C52.5947 49.4266 52.6631 49.3872 52.7171 49.3332C53.3328 48.7175 53.7521 47.9331 53.922 47.0791C54.0918 46.2251 54.0046 45.3399 53.6714 44.5355C53.3382 43.731 52.774 43.0434 52.05 42.5597C51.326 42.0759 50.4748 41.8177 49.6041 41.8177C48.7334 41.8177 47.8822 42.0759 47.1582 42.5597C46.4343 43.0434 45.87 43.731 45.5368 44.5355C45.2036 45.3399 45.1164 46.2251 45.2863 47.0791C45.4561 47.9331 45.8754 48.7175 46.4911 49.3332C46.5451 49.3872 46.6136 49.4266 46.6696 49.4785V68.8662L34.4542 42.6921L43.3781 33.7682C43.9301 33.2162 44.2394 32.4711 44.2373 31.6929L44.2373 24.2507L54.9709 24.2507L54.9709 31.6929ZM54.9668 18.3817L44.2331 18.3817L44.2228 13.8927L54.9605 13.8678L54.9668 18.3817Z" fill="white"/>
<path d="M11.0442 73.0896C13.4803 82.5873 19.3332 90.8468 27.4773 96.28L3.28086 96.28C2.41072 96.28 1.57622 96.6265 0.960939 97.2433C0.345659 97.8601 -6.40081e-06 98.6966 -6.47706e-06 99.5689C-6.55332e-06 100.441 0.345658 101.278 0.960938 101.894C1.57622 102.511 2.41072 102.858 3.28086 102.858L36.4997 102.858C37.2224 105.687 38.8642 108.196 41.1661 109.987C43.468 111.778 46.2991 112.75 49.213 112.75C52.127 112.75 54.9581 111.778 57.26 109.987C59.5619 108.196 61.2036 105.687 61.9264 102.858L95.1452 102.858C96.0154 102.858 96.8499 102.511 97.4651 101.894C98.0804 101.278 98.4261 100.441 98.4261 99.5689C98.4261 98.6966 98.0804 97.8601 97.4651 97.2433C96.8499 96.6265 96.0154 96.28 95.1452 96.28L70.9488 96.28C79.0929 90.8468 84.9457 82.5873 87.3819 73.0896C90.532 72.5858 93.3912 70.949 95.4249 68.4853C97.4586 66.0216 98.5274 62.8997 98.4316 59.7034C98.3357 56.5071 97.0818 53.4552 94.9042 51.1184C92.7266 48.7816 89.7745 47.3199 86.5998 47.0066C83.4252 46.6933 80.2454 47.5498 77.655 49.4161C75.0646 51.2823 73.241 54.0305 72.5252 57.1467C71.8094 60.2629 72.2504 63.5338 73.7657 66.3477C75.281 69.1616 77.7669 71.326 80.7586 72.436C79.35 77.3046 76.8457 81.7843 73.4387 85.5304C70.0316 89.2764 65.8125 92.1889 61.1062 94.0436C60.0532 91.7676 58.3729 89.8409 56.2635 88.4907C54.1541 87.1405 51.7035 86.4231 49.2007 86.4231C46.698 86.4231 44.2474 87.1405 42.138 88.4907C40.0285 89.8409 38.3483 91.7676 37.2953 94.0436C32.5935 92.1858 28.3793 89.2719 24.9767 85.526C21.5741 81.7802 19.0736 77.3021 17.6675 72.436C20.6606 71.3297 23.1492 69.1685 24.668 66.3564C26.1869 63.5444 26.632 60.274 25.92 57.1569C25.2081 54.0397 23.3879 51.2893 20.7997 49.4198C18.2116 47.5503 15.0328 46.6898 11.8578 46.9993C8.68268 47.3087 5.72873 48.7668 3.54828 51.1009C1.36783 53.4351 0.110173 56.4855 0.0104798 59.6817C-0.0892138 62.878 0.975888 66.0012 3.00661 68.4673C5.03733 70.9335 7.89463 72.5738 11.0442 73.0814L11.0442 73.0896ZM78.7409 60.1028C78.7409 58.8019 79.1257 57.5302 79.8467 56.4485C80.5677 55.3668 81.5925 54.5237 82.7915 54.0259C83.9905 53.528 85.3099 53.3977 86.5827 53.6515C87.8556 53.9053 89.0248 54.5318 89.9425 55.4517C90.8601 56.3716 91.4851 57.5436 91.7383 58.8196C91.9914 60.0955 91.8615 61.4181 91.3649 62.62C90.8682 63.8219 90.0272 64.8492 88.9481 65.572C87.869 66.2947 86.6004 66.6805 85.3026 66.6805C83.5623 66.6805 81.8933 65.9875 80.6628 64.7539C79.4322 63.5204 78.7409 61.8473 78.7409 60.1028ZM49.213 92.9912C50.5108 92.9912 51.7795 93.377 52.8585 94.0997C53.9376 94.8225 54.7786 95.8498 55.2753 97.0517C55.7719 98.2536 55.9019 99.5762 55.6487 100.852C55.3955 102.128 54.7706 103.3 53.8529 104.22C52.9352 105.14 51.766 105.766 50.4932 106.02C49.2203 106.274 47.901 106.144 46.702 105.646C45.503 105.148 44.4782 104.305 43.7572 103.223C43.0361 102.142 42.6513 100.87 42.6513 99.5689C42.6513 97.8243 43.3426 96.1513 44.5732 94.9177C45.8038 93.6842 47.4728 92.9912 49.213 92.9912ZM13.1235 53.5252C14.4213 53.5252 15.6899 53.9109 16.769 54.6337C17.8481 55.3565 18.6891 56.3837 19.1857 57.5857C19.6824 58.7876 19.8123 60.1101 19.5591 61.3861C19.306 62.662 18.681 63.834 17.7633 64.7539C16.8457 65.6738 15.6765 66.3003 14.4036 66.5541C13.1308 66.8079 11.8114 66.6776 10.6124 66.1798C9.4134 65.6819 8.38861 64.8389 7.66759 63.7572C6.94658 62.6755 6.56174 61.4038 6.56174 60.1028C6.56174 58.3583 7.25306 56.6853 8.48363 55.4517C9.71419 54.2182 11.3832 53.5252 13.1235 53.5252Z" fill="white"/>
</svg>
