<svg width="113" height="113" viewBox="0 0 112 113" fill="none" xmlns="http://www.w3.org/2000/svg">
<path d="M91.6417 7H21.0583C17.1601 7 14 10.4399 14 14.6833V71.0278C14 75.2712 17.1601 78.7111 21.0583 78.7111H91.6417C95.5399 78.7111 98.7 75.2712 98.7 71.0278V14.6833C98.7 10.4399 95.5399 7 91.6417 7Z" stroke="white" stroke-width="7" stroke-linejoin="round"/>
<path d="M32.8221 99.2H79.8777M56.3499 78.7111V99.2" stroke="white" stroke-width="7" stroke-linecap="round" stroke-linejoin="round"/>
<path fill-rule="evenodd" clip-rule="evenodd" d="M36.7593 26.1165C36.9844 25.8811 37.2685 25.7636 37.504 25.7636H73.0476C73.2831 25.7636 73.5671 25.8811 73.7923 26.1165L73.7923 26.1166C74.0263 26.3713 74.1838 26.7504 74.1838 27.1775V35.4192H36.3678V27.1775C36.3678 26.7504 36.5253 26.3713 36.7592 26.1166L36.7593 26.1165ZM32.3678 39.4192V37.4192V27.1775C32.3678 25.7939 32.8711 24.4364 33.8134 23.4107C34.7233 22.4105 36.0074 21.7636 37.504 21.7636H73.0476C74.5442 21.7636 75.8284 22.4105 76.7383 23.4108C77.6805 24.4365 78.1838 25.794 78.1838 27.1775V37.4192V39.4192V56.7647C78.1838 59.5916 76.0406 62.1786 73.0476 62.1786H37.504C34.511 62.1786 32.3678 59.5916 32.3678 56.7647V39.4192ZM74.1838 39.4192V56.7647C74.1838 57.7087 73.5187 58.1786 73.0476 58.1786H37.504C37.0329 58.1786 36.3678 57.7087 36.3678 56.7647V39.4192H74.1838ZM38.5494 30.5914C38.5494 29.3345 39.4855 28.3155 40.6402 28.3155C41.7949 28.3155 42.731 29.3345 42.731 30.5914C42.731 31.8484 41.7949 32.8674 40.6402 32.8674C39.4855 32.8674 38.5494 31.8484 38.5494 30.5914ZM46.9126 28.3155C45.7579 28.3155 44.8218 29.3345 44.8218 30.5914C44.8218 31.8484 45.7579 32.8674 46.9126 32.8674C48.0673 32.8674 49.0034 31.8484 49.0034 30.5914C49.0034 29.3345 48.0673 28.3155 46.9126 28.3155Z" fill="white"/>
</svg>
