<svg width="113" height="113" viewBox="0 0 117 101" fill="none" xmlns="http://www.w3.org/2000/svg">
<path d="M44.375 39.25C44.375 42.2337 45.5603 45.0952 47.6701 47.2049C49.7798 49.3147 52.6413 50.5 55.625 50.5C58.6087 50.5 61.4702 49.3147 63.5799 47.2049C65.6897 45.0952 66.875 42.2337 66.875 39.25C66.875 36.2663 65.6897 33.4048 63.5799 31.2951C61.4702 29.1853 58.6087 28 55.625 28C52.6413 28 49.7798 29.1853 47.6701 31.2951C45.5603 33.4048 44.375 36.2663 44.375 39.25Z" stroke="#16243A" stroke-width="10" stroke-linecap="round" stroke-linejoin="round"/>
<path d="M55.625 73C35.375 73 18.5 61.75 5 39.25C18.5 16.75 35.375 5.5 55.625 5.5C75.875 5.5 92.75 16.75 106.25 39.25M78.125 78.625H111.875M95 61.75V95.5" stroke="#101B2B" stroke-width="10" stroke-linecap="round" stroke-linejoin="round"/>
</svg>
