<svg width="113" height="113" viewBox="0 0 113 113" fill="none" xmlns="http://www.w3.org/2000/svg">
<path d="M53.0596 73.441L84.2402 104.622C86.9143 107.21 90.4988 108.644 94.2205 108.614C97.9423 108.584 101.503 107.092 104.135 104.46C106.767 101.828 108.258 98.2675 108.289 94.5458C108.319 90.8241 106.885 87.2396 104.296 84.5654L72.8643 53.1335M53.0596 73.441L66.4089 57.2356C68.1043 55.1819 70.3667 53.8876 72.8697 53.1388C75.8112 52.2617 79.0898 52.1333 82.1918 52.3901C86.3732 52.7491 90.5759 52.0085 94.3827 50.2417C98.1895 48.4749 101.468 45.7434 103.893 42.3182C106.318 38.8929 107.806 34.8931 108.208 30.7155C108.609 26.538 107.912 22.328 106.184 18.5032L88.6632 36.0296C85.7318 35.3518 83.0497 33.8644 80.9222 31.7369C78.7947 29.6095 77.3074 26.9273 76.6295 23.9959L94.1506 6.47491C90.3258 4.74722 86.1158 4.04969 81.9383 4.45156C77.7607 4.85343 73.7609 6.34073 70.3356 8.76585C66.9104 11.191 64.1789 14.4696 62.4121 18.2764C60.6453 22.0833 59.9047 26.2859 60.2637 30.4674C60.7504 36.2222 59.884 42.5759 55.4289 46.2449L54.8833 46.6995M53.0596 73.441L28.1632 103.675C26.9566 105.146 25.4554 106.348 23.7562 107.203C22.057 108.059 20.1975 108.549 18.2974 108.643C16.3973 108.736 14.4986 108.431 12.7236 107.746C10.9486 107.062 9.33662 106.013 7.99139 104.668C6.64617 103.323 5.59751 101.711 4.91292 99.9355C4.22832 98.1605 3.92295 96.2619 4.01648 94.3617C4.11 92.4616 4.60034 90.6021 5.45593 88.9029C6.31152 87.2037 7.5134 85.7025 8.98422 84.4959L45.5506 54.385L23.5851 32.4195H16.0493L4.01565 12.3634L12.0381 4.34094L32.0942 16.3746V23.9104L54.878 46.6941L45.5452 54.3796M90.257 90.5823L76.2177 76.543M18.0122 94.5935H18.0549V94.6363H18.0122V94.5935Z" stroke="#101B2B" stroke-width="8" stroke-linecap="round" stroke-linejoin="round"/>
</svg>
