<svg width="113" height="113" viewBox="0 0 113 113" fill="none" xmlns="http://www.w3.org/2000/svg">
<path d="M80.775 67.75C81.225 64.0375 81.5625 60.325 81.5625 56.5C81.5625 52.675 81.225 48.9625 80.775 45.25H99.7875C100.688 48.85 101.25 52.6188 101.25 56.5C101.25 60.3812 100.688 64.15 99.7875 67.75M70.8187 99.025C74.1937 92.7812 76.7812 86.0312 78.5813 79H95.175C89.7253 88.3841 81.0794 95.4925 70.8187 99.025ZM69.4125 67.75H43.0875C42.525 64.0375 42.1875 60.325 42.1875 56.5C42.1875 52.675 42.525 48.9062 43.0875 45.25H69.4125C69.9187 48.9062 70.3125 52.675 70.3125 56.5C70.3125 60.325 69.9187 64.0375 69.4125 67.75ZM56.25 101.275C51.5812 94.525 47.8125 87.0437 45.5063 79H66.9938C64.6875 87.0437 60.9188 94.525 56.25 101.275ZM33.75 34H17.325C22.7186 24.5906 31.3582 17.4709 41.625 13.975C38.25 20.2188 35.7188 26.9688 33.75 34ZM17.325 79H33.75C35.7188 86.0312 38.25 92.7812 41.625 99.025C31.3798 95.4906 22.7523 88.3809 17.325 79ZM12.7125 67.75C11.8125 64.15 11.25 60.3812 11.25 56.5C11.25 52.6188 11.8125 48.85 12.7125 45.25H31.725C31.275 48.9625 30.9375 52.675 30.9375 56.5C30.9375 60.325 31.275 64.0375 31.725 67.75M56.25 11.6688C60.9188 18.4188 64.6875 25.9562 66.9938 34H45.5063C47.8125 25.9562 51.5812 18.4188 56.25 11.6688ZM95.175 34H78.5813C76.8207 27.0332 74.2139 20.3082 70.8187 13.975C81.1687 17.5188 89.775 24.6625 95.175 34ZM56.25 0.25C25.1437 0.25 0 25.5625 0 56.5C0 71.4184 5.92632 85.7258 16.4752 96.2748C21.6985 101.498 27.8995 105.641 34.7241 108.468C41.5486 111.295 48.8631 112.75 56.25 112.75C71.1684 112.75 85.4758 106.824 96.0248 96.2748C106.574 85.7258 112.5 71.4184 112.5 56.5C112.5 49.1131 111.045 41.7986 108.218 34.9741C105.391 28.1495 101.248 21.9485 96.0248 16.7252C90.8015 11.5019 84.6005 7.3586 77.7759 4.53178C70.9514 1.70495 63.6369 0.25 56.25 0.25Z" fill="#16243A"/>
</svg>
